<?xml version="1.0" encoding="UTF-8"?>
<svg id="Layer_2" data-name="Layer 2" xmlns="http://www.w3.org/2000/svg" viewBox="0 0 410.17 540.74">
  <g id="Logos">
    <g>
      <path d="M409.38,415.28l-30.17-246.71c-4.7-38.43-37.4-67.41-76.07-67.41-1.62,0-3.26.06-4.9.16-1.5.09-3,.23-4.49.41l-1.09.13c-8.06.98-15.78,3.19-22.94,6.51-10.91,5.04-20.55,12.64-28.18,22.38-12.62,16.14-18.2,36.23-15.71,56.56.45,3.69-.45,6.83-2.64,9.33-2.38,2.67-6.09,4.33-9.72,4.33s-6.83-1.64-9.28-4.87l-29.75-39.17c-13.11-16.96-37.07-37.18-76.7-37.18-4.32,0-8.77.26-13.27.75-.57.06-1.14.12-1.71.19-9.82,1.21-19.04,3.73-27.48,7.4C17.87,144.29-4.58,182.67.79,226.61l30.17,246.71c4.7,38.43,37.4,67.41,76.07,67.41,3.12,0,6.28-.2,9.38-.58l1.57-.19c41.99-5.13,71.96-43.47,66.83-85.43l-.03-.3c-.45-3.69.45-6.83,2.64-9.32,2.37-2.68,6.09-4.34,9.72-4.34s6.85,1.65,9.3,4.9l29.77,39.41c18.27,23.62,45.67,36.63,77.17,36.63,4.88,0,9.91-.31,14.93-.93,52.77-6.46,87.62-51.73,81.07-105.31ZM322.99,477.08c-20.67,2.53-39.34-2.51-52.1-19l-121.75-161.19c-9.11-12.05-28.29-4.3-26.46,10.69l18.56,151.72c2.24,18.32-10.8,34.99-29.12,37.24l-.48.06c-18.32,2.24-34.99-10.8-37.22-29.12l-30.11-246.17c-3.94-32.21,17.33-53.85,43.76-57.08,21.16-2.59,38.93,3.05,51.69,19.54l121.64,160.1c9.13,12.01,28.26,4.24,26.42-10.73l-18.41-150.58c-2.24-18.32,10.8-34.99,29.12-37.22,1.38-.17,2.74-.26,4.11-.26,16.65,0,31.05,12.43,33.12,29.37l30.11,246.17c3.94,32.21-17.38,53.37-42.87,56.48Z"/>
      <path d="M286.42,123.93c-8.03.98-15.34-4.73-16.32-12.76-6.24-51-52.8-87.41-103.79-81.17-51,6.24-87.41,52.8-81.17,103.79.98,8.03-4.73,15.34-12.76,16.32-8.03.98-15.34-4.73-16.32-12.76C47.86,70.31,95.73,9.11,162.76.91c67.03-8.2,128.23,39.67,136.43,106.7.98,8.03-4.73,15.34-12.76,16.32Z"/>
    </g>
  </g>
</svg>