<?xml version="1.0" encoding="UTF-8"?>
<svg id="Layer_2" data-name="Layer 2" xmlns="http://www.w3.org/2000/svg" viewBox="0 0 450.11 505.19">
  <g id="Logos">
    <g>
      <g>
        <path d="M327.71,208.68l-15.16-123.97c-2.36-19.31-18.79-33.88-38.22-33.88-.82,0-1.64.03-2.46.08-.76.05-1.51.12-2.26.21l-.55.07c-4.05.49-7.93,1.6-11.53,3.27-5.48,2.53-10.32,6.35-14.15,11.24-6.34,8.12-9.15,18.21-7.9,28.43.23,1.85-.22,3.43-1.33,4.68-1.19,1.35-3.06,2.18-4.88,2.18s-3.43-.82-4.66-2.44l-14.96-19.68c-6.59-8.53-18.62-18.69-38.54-18.69-2.17,0-4.41.13-6.67.38-.29.02-.57.06-.86.09-4.93.6-9.56,1.87-13.8,3.71-18.8,8.14-30.08,27.44-27.38,49.52l15.16,123.97c2.36,19.32,18.79,33.88,38.22,33.88,1.57,0,3.16-.1,4.72-.29l.79-.1c21.09-2.58,36.16-21.84,33.58-42.93l-.02-.15c-.22-1.85.22-3.43,1.33-4.68,1.19-1.35,3.06-2.18,4.89-2.18s3.44.83,4.67,2.46l14.96,19.8c9.18,11.87,22.95,18.41,38.78,18.41,2.45,0,4.97-.16,7.5-.46,26.51-3.25,44.03-26,40.73-52.93ZM284.31,239.74c-10.39,1.27-19.78-1.26-26.18-9.55l-61.19-81c-4.57-6.06-14.21-2.16-13.29,5.37l9.32,76.24c1.13,9.21-5.42,17.58-14.63,18.71l-.24.03c-9.21,1.13-17.59-5.43-18.71-14.63l-15.13-123.71c-1.98-16.18,8.71-27.06,22-28.68,10.63-1.3,19.56,1.53,25.96,9.82l61.13,80.45c4.59,6.04,14.2,2.13,13.28-5.39l-9.25-75.67c-1.13-9.21,5.42-17.58,14.63-18.71.69-.09,1.38-.13,2.06-.13,8.37,0,15.61,6.25,16.65,14.76l15.13,123.71c1.98,16.18-8.74,26.81-21.54,28.38Z"/>
        <path d="M265.93,62.28c-4.03.49-7.71-2.38-8.2-6.41-3.13-25.63-26.53-43.93-52.16-40.79-25.63,3.13-43.93,26.53-40.79,52.16.49,4.04-2.38,7.71-6.41,8.2s-7.71-2.38-8.2-6.41C146.05,35.33,170.1,4.58,203.78.46c33.68-4.12,64.44,19.93,68.56,53.62.49,4.04-2.38,7.71-6.41,8.2Z"/>
      </g>
      <g>
        <path d="M63,312.77c-17.34,0-26.64,8.03-32.35,18.6v-16.49H0v109.09h32.34v-60.89c0-15.64,8.04-24.31,20.3-24.31,10.99,0,15.64,6.77,15.64,19.45v65.75h32.35v-72.09c0-26.43-12.69-39.11-37.63-39.11Z"/>
        <path d="M169.99,312.77c-36.57,0-57.08,22.62-57.08,56.66s20.51,56.65,57.08,56.65,57.08-22.62,57.08-56.65-20.5-56.66-57.08-56.66ZM169.99,401.77c-15.85,0-24.73-10.36-24.73-32.34s8.88-32.35,24.73-32.35,24.74,10.36,24.74,32.35-8.88,32.34-24.74,32.34Z"/>
        <path d="M310.57,314.88l-25.15,81.18-25.16-81.18h-33.61l39.11,109.09h39.32l39.11-109.09h-33.62Z"/>
        <path d="M446.73,396.06v-46.08c0-22.62-14.38-37.21-49.47-37.21s-49.47,14.59-49.47,37.21h32.14c1.05-9.73,6.97-14.59,17.75-14.59s16.7,5.28,16.7,14.59c0,4.65-2.53,7.4-11.62,8.24l-23.26,1.9c-27.9,2.33-37.63,16.07-37.63,32.98,0,20.09,13.74,32.98,39.75,32.98,18.18,0,28.32-5.92,34.45-17.33,0,7.18,1.7,11.41,4.66,15.22h29.38c-2.11-3.6-3.38-13.11-3.38-27.91ZM414.38,380c0,13.31-8.45,24.52-23.25,24.52-11.84,0-16.91-5.5-16.91-13.74,0-6.77,4.65-11.63,16.7-12.69l11.84-.84c5.92-.64,10.14-1.69,11.62-3.39v6.14Z"/>
      </g>
      <g>
        <path d="M132.62,483.45v-14.84c0-6.9-4.31-11.27-14.31-11.27s-14.32,4.37-14.32,11.27h6.89c.34-4.25,2.85-6.23,7.49-6.23,4.97,0,7.23,2.32,7.23,6.23,0,2.18-1.2,3.11-5.24,3.51l-6.63.53c-8.48.73-11.59,4.77-11.59,9.87,0,6.36,4.3,10.34,12.26,10.34,5.89,0,9.67-2.19,11.53-6.56,0,3.18.39,4.57,1.46,5.9h6.29c-.66-1.13-1.06-4.11-1.06-8.75ZM125.6,477.68c0,5.64-3.25,10.34-9.28,10.34-5.04,0-7.16-2.45-7.16-5.96,0-2.78,1.92-4.84,6.83-5.24l4.37-.39c2.65-.2,4.51-.73,5.24-1.66v2.91Z"/>
        <path d="M156.45,457.34c-5.9,0-9.61,2.59-11.46,7.02v-6.36h-6.7v47.19h7.03v-18.82c1.92,4.24,5.63,6.49,11.13,6.49,9.21,0,14.98-6.56,14.98-17.76s-5.77-17.76-14.98-17.76ZM154.86,487.49c-5.7,0-9.54-3.78-9.54-12.39s3.84-12.39,9.54-12.39,9.54,3.84,9.54,12.39-3.91,12.39-9.54,12.39Z"/>
        <path d="M193.93,457.34c-5.89,0-9.6,2.59-11.46,7.02v-6.36h-6.69v47.19h7.02v-18.82c1.92,4.24,5.63,6.49,11.13,6.49,9.22,0,14.98-6.56,14.98-17.76s-5.76-17.76-14.98-17.76ZM192.34,487.49c-5.7,0-9.54-3.78-9.54-12.39s3.84-12.39,9.54-12.39,9.55,3.84,9.55,12.39-3.91,12.39-9.55,12.39Z"/>
        <path d="M242.42,483.45v-14.84c0-6.9-4.31-11.27-14.32-11.27s-14.31,4.37-14.31,11.27h6.89c.33-4.25,2.85-6.23,7.49-6.23,4.97,0,7.22,2.32,7.22,6.23,0,2.18-1.19,3.11-5.23,3.51l-6.63.53c-8.48.73-11.6,4.77-11.6,9.87,0,6.36,4.31,10.34,12.26,10.34,5.9,0,9.68-2.19,11.53-6.56,0,3.18.4,4.57,1.46,5.9h6.3c-.67-1.13-1.06-4.11-1.06-8.75ZM235.39,477.68c0,5.64-3.24,10.34-9.27,10.34-5.04,0-7.16-2.45-7.16-5.96,0-2.78,1.92-4.84,6.82-5.24l4.38-.39c2.65-.2,4.5-.73,5.23-1.66v2.91Z"/>
        <path d="M264.59,457.61c-4.97,0-8.02,2.25-9.81,8.28v-7.89h-6.69v34.2h7.03v-16.24c0-7.62,3.64-11.93,9.21-11.93l3.38.14v-6.17c-.87-.2-2.19-.39-3.12-.39Z"/>
        <path d="M302.56,474.5c0-9.8-5.7-17.16-16.5-17.16s-16.5,7.22-16.5,17.76,6.03,17.76,16.9,17.76c8.88,0,13.85-4.31,15.38-11.27h-6.43c-1.06,3.91-4.11,6.43-8.95,6.43-5.83,0-9.67-3.51-9.87-11.59h25.84c.07-.67.13-1.26.13-1.93ZM276.59,471.79c.73-6.43,4.17-9.61,9.47-9.61s8.75,3.18,9.48,9.61h-18.95Z"/>
        <path d="M306.91,445.01v47.19h7.03v-47.19h-7.03Z"/>
        <path d="M336.77,472.52l-6.29-.93c-2.65-.4-4.24-1.39-4.24-4.18,0-3.31,1.85-5.36,6.82-5.36,5.83,0,6.89,2.85,7.23,6.03h6.75c0-6.03-3.71-10.74-13.91-10.74s-13.92,4.71-13.92,10.6,3.05,8.22,10.21,9.21l6.29.93c3.25.47,5.24,1.86,5.24,4.57,0,2.92-1.79,5.5-7.76,5.5s-7.81-2.65-8.15-6.56h-6.76c0,6.56,4.11,11.27,14.85,11.27s14.84-4.71,14.84-10.6c0-6.23-4.24-8.75-11.2-9.74Z"/>
      </g>
    </g>
  </g>
</svg>