<?xml version="1.0" encoding="UTF-8"?>
<svg id="Layer_2" data-name="Layer 2" xmlns="http://www.w3.org/2000/svg" viewBox="0 0 716.81 293.43">
  <g id="Logos">
    <g>
      <g>
        <path d="M222.15,225.35l-16.38-133.88c-2.55-20.85-20.29-36.58-41.27-36.58-.88,0-1.77.03-2.66.09-.82.05-1.63.12-2.44.22l-.59.08c-4.38.53-8.56,1.73-12.45,3.53-5.92,2.73-11.15,6.85-15.28,12.14-6.85,8.76-9.88,19.66-8.53,30.7.24,2-.24,3.7-1.44,5.05-1.29,1.46-3.31,2.36-5.27,2.36s-3.71-.89-5.04-2.64l-16.14-21.25c-7.12-9.21-20.12-20.18-41.63-20.18-2.34,0-4.76.13-7.2.41-.31.03-.61.06-.92.1-5.33.65-10.33,2.02-14.91,4.01C9.7,78.3-2.48,99.13.43,122.97l16.37,133.88c2.55,20.85,20.3,36.58,41.28,36.58,1.69,0,3.41-.11,5.09-.31l.85-.11c22.79-2.79,39.06-23.59,36.27-46.36l-.02-.16c-.24-2,.24-3.7,1.44-5.06,1.28-1.45,3.3-2.35,5.27-2.35s3.71.89,5.05,2.66l16.15,21.38c9.91,12.82,24.78,19.88,41.88,19.88,2.64,0,5.37-.17,8.1-.5,28.63-3.5,47.54-28.07,43.99-57.15ZM175.27,258.89c-11.22,1.37-21.35-1.37-28.27-10.32l-66.07-87.47c-4.94-6.54-15.35-2.33-14.36,5.8l10.07,82.33c1.22,9.94-5.86,18.99-15.8,20.21l-.26.03c-9.94,1.21-18.99-5.86-20.2-15.8L24.04,120.08c-2.14-17.48,9.4-29.22,23.75-30.97,11.48-1.4,21.13,1.65,28.05,10.6l66.01,86.88c4.95,6.52,15.33,2.3,14.34-5.82l-10-81.71c-1.21-9.95,5.86-18.99,15.81-20.21.74-.09,1.48-.13,2.22-.13,9.03,0,16.85,6.73,17.98,15.93l16.33,133.59c2.14,17.48-9.43,28.95-23.26,30.65Z"/>
        <path d="M155.42,67.25c-4.36.53-8.32-2.57-8.85-6.92-3.38-27.67-28.65-47.43-56.32-44.05-27.67,3.38-47.43,28.65-44.05,56.32.53,4.36-2.57,8.32-6.92,8.85-4.36.53-8.32-2.57-8.85-6.92C25.97,38.15,51.94,4.94,88.32.5s69.58,21.53,74.03,57.9c.53,4.36-2.57,8.32-6.92,8.85Z"/>
      </g>
      <g>
        <g>
          <path d="M329.7,58.51c-17.34,0-26.64,8.04-32.35,18.61v-16.49h-30.65v109.08h32.34v-60.88c0-15.65,8.04-24.32,20.3-24.32,10.99,0,15.64,6.77,15.64,19.45v65.75h32.34v-72.09c0-26.42-12.68-39.11-37.62-39.11Z"/>
          <path d="M436.69,58.51c-36.57,0-57.08,22.62-57.08,56.66s20.51,56.65,57.08,56.65,57.08-22.62,57.08-56.65-20.51-56.66-57.08-56.66ZM436.69,147.51c-15.85,0-24.73-10.36-24.73-32.34s8.88-32.35,24.73-32.35,24.74,10.36,24.74,32.35-8.88,32.34-24.74,32.34Z"/>
          <path d="M577.27,60.63l-25.16,81.17-25.15-81.17h-33.61l39.1,109.08h39.32l39.11-109.08h-33.61Z"/>
          <path d="M713.43,141.8v-46.08c0-22.62-14.38-37.21-49.47-37.21s-49.47,14.59-49.47,37.21h32.13c1.06-9.73,6.98-14.59,17.76-14.59s16.7,5.29,16.7,14.59c0,4.65-2.54,7.4-11.63,8.24l-23.25,1.91c-27.9,2.32-37.63,16.06-37.63,32.97,0,20.09,13.74,32.98,39.74,32.98,18.18,0,28.33-5.92,34.46-17.33,0,7.19,1.69,11.41,4.65,15.22h29.39c-2.12-3.6-3.38-13.11-3.38-27.91ZM681.08,125.74c0,13.32-8.45,24.52-23.25,24.52-11.84,0-16.91-5.5-16.91-13.74,0-6.77,4.65-11.63,16.7-12.69l11.83-.84c5.92-.64,10.15-1.69,11.63-3.38v6.13Z"/>
        </g>
        <g>
          <path d="M297.18,229.19v-14.84c0-6.89-4.31-11.27-14.31-11.27s-14.32,4.38-14.32,11.27h6.9c.33-4.24,2.84-6.23,7.48-6.23,4.97,0,7.23,2.32,7.23,6.23,0,2.18-1.2,3.11-5.24,3.51l-6.63.53c-8.48.73-11.59,4.77-11.59,9.87,0,6.37,4.31,10.34,12.26,10.34,5.9,0,9.67-2.19,11.53-6.56,0,3.18.4,4.57,1.46,5.9h6.29c-.66-1.13-1.06-4.11-1.06-8.75ZM290.16,223.43c0,5.63-3.25,10.33-9.28,10.33-5.04,0-7.16-2.45-7.16-5.96,0-2.78,1.92-4.84,6.83-5.23l4.37-.4c2.65-.2,4.51-.73,5.24-1.66v2.92Z"/>
          <path d="M321.01,203.08c-5.9,0-9.61,2.59-11.46,7.03v-6.36h-6.7v47.18h7.03v-18.82c1.92,4.24,5.63,6.49,11.13,6.49,9.21,0,14.98-6.56,14.98-17.76s-5.77-17.76-14.98-17.76ZM319.42,233.23c-5.7,0-9.54-3.77-9.54-12.39s3.84-12.39,9.54-12.39,9.54,3.84,9.54,12.39-3.91,12.39-9.54,12.39Z"/>
          <path d="M358.49,203.08c-5.89,0-9.6,2.59-11.46,7.03v-6.36h-6.69v47.18h7.02v-18.82c1.92,4.24,5.63,6.49,11.13,6.49,9.22,0,14.98-6.56,14.98-17.76s-5.76-17.76-14.98-17.76ZM356.9,233.23c-5.7,0-9.54-3.77-9.54-12.39s3.84-12.39,9.54-12.39,9.55,3.84,9.55,12.39-3.91,12.39-9.55,12.39Z"/>
          <path d="M406.98,229.19v-14.84c0-6.89-4.31-11.27-14.32-11.27s-14.31,4.38-14.31,11.27h6.89c.33-4.24,2.85-6.23,7.49-6.23,4.97,0,7.22,2.32,7.22,6.23,0,2.18-1.19,3.11-5.23,3.51l-6.63.53c-8.48.73-11.6,4.77-11.6,9.87,0,6.37,4.31,10.34,12.26,10.34,5.9,0,9.68-2.19,11.53-6.56,0,3.18.4,4.57,1.46,5.9h6.3c-.67-1.13-1.06-4.11-1.06-8.75ZM399.95,223.43c0,5.63-3.24,10.33-9.27,10.33-5.04,0-7.16-2.45-7.16-5.96,0-2.78,1.92-4.84,6.82-5.23l4.38-.4c2.65-.2,4.5-.73,5.23-1.66v2.92Z"/>
          <path d="M429.15,203.35c-4.97,0-8.02,2.25-9.8,8.28v-7.88h-6.7v34.19h7.03v-16.24c0-7.62,3.64-11.92,9.21-11.92l3.38.13v-6.16c-.86-.2-2.19-.4-3.12-.4Z"/>
          <path d="M467.13,220.25c0-9.81-5.7-17.17-16.51-17.17s-16.5,7.23-16.5,17.76,6.03,17.76,16.9,17.76c8.88,0,13.85-4.31,15.38-11.26h-6.43c-1.06,3.91-4.11,6.42-8.95,6.42-5.83,0-9.67-3.51-9.87-11.59h25.84c.07-.67.14-1.26.14-1.92ZM441.15,217.53c.73-6.43,4.17-9.61,9.47-9.61s8.75,3.18,9.48,9.61h-18.95Z"/>
          <path d="M471.47,190.76v47.18h7.03v-47.18h-7.03Z"/>
          <path d="M501.33,218.26l-6.29-.93c-2.65-.4-4.24-1.39-4.24-4.18,0-3.31,1.85-5.36,6.82-5.36,5.83,0,6.89,2.85,7.23,6.03h6.76c0-6.03-3.72-10.74-13.92-10.74s-13.92,4.71-13.92,10.61,3.05,8.21,10.21,9.21l6.29.92c3.25.47,5.24,1.86,5.24,4.58,0,2.91-1.79,5.5-7.75,5.5s-7.82-2.65-8.16-6.56h-6.75c0,6.56,4.1,11.26,14.84,11.26s14.84-4.7,14.84-10.6c0-6.23-4.24-8.75-11.2-9.74Z"/>
        </g>
      </g>
    </g>
  </g>
</svg>